<?xml version="1.0" standalone="no"?>
<!DOCTYPE svg PUBLIC "-//W3C//DTD SVG 20010904//EN"
 "http://www.w3.org/TR/2001/REC-SVG-20010904/DTD/svg10.dtd">
<svg version="1.0" xmlns="http://www.w3.org/2000/svg"
 width="541.000000pt" height="109.000000pt" viewBox="0 0 541.000000 109.000000"
 preserveAspectRatio="xMidYMid meet">

<g transform="translate(0.000000,109.000000) scale(0.100000,-0.100000)"
fill="#000000" stroke="none">
<path d="M765 781 c-60 -15 -120 -57 -149 -103 -17 -26 -17 -26 19 -54 l37
-28 25 32 c46 59 121 79 182 48 27 -14 29 -14 60 18 35 36 33 40 -24 69 -38
19 -111 28 -150 18z"/>
<path d="M830 534 l0 -36 63 4 c59 3 62 2 65 -20 2 -14 -5 -33 -17 -46 l-21
-22 24 -23 25 -23 21 33 c11 19 23 44 26 56 3 13 10 20 15 17 5 -3 9 18 9 45
l0 51 -105 0 -105 0 0 -36z"/>
</g>
</svg>
